<?xml version="1.0" standalone="no"?>
<!DOCTYPE svg PUBLIC "-//W3C//DTD SVG 20010904//EN"
 "http://www.w3.org/TR/2001/REC-SVG-20010904/DTD/svg10.dtd">
<svg version="1.0" xmlns="http://www.w3.org/2000/svg"
 width="206.000000pt" height="122.000000pt" viewBox="0 0 206.000000 122.000000"
 preserveAspectRatio="xMidYMid meet">
<g transform="translate(0.000000,122.000000) scale(0.100000,-0.100000)"
fill="#787878" stroke="none">
<path d="M282 828 c-25 -25 0 -64 32 -52 21 8 21 50 0 58 -20 8 -18 8 -32 -6z"/>
<path d="M1230 774 l0 -67 -45 5 c-40 5 -45 3 -45 -14 0 -18 6 -20 45 -16 l45
3 0 -132 c0 -127 1 -133 20 -133 20 0 21 5 19 132 l-1 132 47 -3 c41 -2 46 0
43 15 -3 15 -11 18 -46 16 l-42 -4 0 66 c0 59 -2 66 -20 66 -18 0 -20 -7 -20
-66z"/>
<path d="M287 713 c-4 -3 -7 -71 -7 -150 0 -136 1 -143 20 -143 19 0 20 7 20
150 0 118 -3 150 -13 150 -8 0 -17 -3 -20 -7z"/>
<path d="M462 686 l-37 -34 -3 -117 c-3 -104 -2 -116 13 -113 13 2 16 20 18
106 2 103 2 104 35 133 45 41 102 41 143 0 28 -29 29 -32 29 -135 0 -99 1
-106 20 -106 19 0 20 7 20 95 0 61 -5 108 -14 130 -20 48 -68 75 -134 75 -46
0 -57 -4 -90 -34z"/>
<path d="M851 702 c-93 -50 -96 -219 -4 -265 70 -36 140 -28 195 22 29 26 33
35 36 97 2 55 -1 75 -16 100 -38 60 -142 83 -211 46z m133 -22 c71 -27 87
-148 27 -202 -40 -36 -114 -39 -154 -7 -58 45 -58 153 0 198 28 23 84 28 127
11z"/>
<path d="M1469 697 c-64 -42 -87 -131 -53 -203 29 -60 110 -94 182 -75 47 13
83 48 62 61 -8 5 -19 3 -27 -6 -37 -36 -135 -30 -170 11 -13 14 -23 37 -23 51
l0 24 136 0 136 0 -7 38 c-3 20 -13 47 -21 60 -41 63 -150 83 -215 39z m160
-34 c16 -16 32 -38 36 -50 6 -23 6 -23 -109 -23 -133 0 -141 7 -82 66 29 29
41 34 80 34 36 0 52 -6 75 -27z"/>
</g>
</svg>
